<?xml version="1.0" encoding="UTF-8"?>
<svg id="Layer_1" data-name="Layer 1" xmlns="http://www.w3.org/2000/svg" version="1.1" viewBox="0 0 2000 826.67">
  <defs>
    <style>
      .cls-1 {
        fill: #000;
      }

      .cls-1, .cls-2 {
        stroke-width: 0px;
      }

      .cls-2 {
        fill: #a17713;
      }
    </style>
  </defs>
  <g>
    <path class="cls-1" d="M174.96,617.71c-12.53-5.99-29.46-12.6-50.36-19.66-17.95-5.89-32.26-11.32-42.55-16.13-10.04-4.69-18.61-10.89-25.48-18.41-6.65-7.27-10.14-16.6-10.39-27.7-.26-16.79,5.23-29.51,16.78-38.88,11.59-9.4,27.51-14.17,47.3-14.17,16.81,0,33.19,3.8,48.7,11.29,15.39,7.44,27.83,18.62,36.97,33.24l.88,1.41h7.81l-12.25-57.64h-7.07l-.37,2.58c-.05.36-1,.73-2.31.91-2.84.39-6.53.58-10.98.58-1.44,0-5.93-.28-19.25-1.62-2.99-.27-8.9-.75-17.72-1.42-8.91-.68-17.54-1.03-25.64-1.03-15.21,0-29.46,2.53-42.35,7.52-13.05,5.05-23.74,12.75-31.76,22.89-8.12,10.26-12.23,22.78-12.23,37.23,0,18.22,4.52,33.27,13.44,44.73,8.79,11.31,19.69,20.08,32.39,26.08,12.36,5.84,28.96,12.12,49.36,18.64,18.52,5.91,33.32,11.34,43.99,16.14,10.37,4.67,19.24,11.37,26.37,19.92,6.96,8.35,10.48,19.19,10.48,32.23,0,17.99-6.57,32.96-19.53,44.51-13.06,11.63-32.97,17.53-59.18,17.53-20.13,0-39.67-3.62-58.06-10.77-18.14-7.04-32.35-18.54-42.25-34.18l-.88-1.4h-7.8l12.25,57.64h7.08l.36-2.59c.05-.34,1.02-.72,2.31-.89,4.87-.67,12.43-.82,21.55-.18,3.93.27,8.07.54,12.37.81,24.14,1.89,41.86,2.85,52.68,2.85,33.1,0,58.64-7.42,75.93-22.05,17.43-14.76,26.27-35.3,26.27-61.04,0-17.43-4.67-31.96-13.9-43.17-9.05-10.99-20.13-19.67-32.94-25.8Z"/>
    <path class="cls-1" d="M577.28,751.94h0c-5.35-3.85-9.45-9.1-12.19-15.58l-107.33-259.37-.77-1.86h-47.29v8.04h3c5.68,0,10.04.83,12.96,2.46,2.51,1.41,4.5,3.29,6.05,5.73l-99.44,238.9c-2.8,6.86-7.46,13.26-13.86,19.02-6.18,5.56-12.75,8.38-19.54,8.38h-3v8.04h62.92v-8.04h-3c-4.61,0-8.09-1.29-10.64-3.95-2.58-2.69-3.84-6.14-3.84-10.52,0-2.34.62-5.12,1.8-8.2l33.79-81.49h122.42l37.88,90.9c.91,2.05,1.37,3.97,1.37,5.69,0,2.63-1.04,4.3-3.37,5.42-2.97,1.42-6.71,2.14-11.1,2.14h-3v8.04h75.53v-8.04h-3c-5.57,0-11.06-1.93-16.33-5.73ZM381.83,641.81l56.09-135.51,56.46,135.51h-112.55Z"/>
    <path class="cls-1" d="M853.23,483.17h3c3.26,0,5.69.84,7.43,2.57,1.73,1.74,2.58,4.04,2.58,7.03,0,4.18-1.57,8.35-4.7,12.45l-75.91,103.05-70.78-106.96c-2.11-3.28-3.18-6.43-3.18-9.35,0-2.68.82-4.76,2.51-6.35,1.74-1.64,4.19-2.43,7.49-2.43h3v-8.04h-81.22v8.04h3c6.2,0,12.4,1.78,18.41,5.28,6.06,3.54,11.47,8.96,16.09,16.14l82.84,124.86v108.45c0,6.22-1.87,10.94-5.72,14.45-3.93,3.58-8.79,5.32-14.85,5.32h-3v8.04h76.34v-8.04h-3c-6.06,0-10.92-1.74-14.85-5.32-3.85-3.5-5.72-8.23-5.72-14.44v-119.75l77.48-105.33c14.24-19.68,28.74-29.65,43.1-29.65h3v-8.04h-63.33v8.04Z"/>
    <path class="cls-1" d="M1195.94,483.17h3c6.32,0,11.57,2,16.06,6.12,4.41,4.06,6.55,9.85,6.55,17.71v164.16c-.78,28.56-9.07,50.27-24.63,64.54-15.61,14.31-36.68,21.57-62.61,21.57-14.14,0-27.54-2.79-39.83-8.28-12.12-5.41-22.2-14.53-29.97-27.09-7.79-12.6-11.75-29.1-11.75-49.03v-169.93c0-6.22,1.87-10.94,5.73-14.45,3.94-3.58,8.79-5.32,14.85-5.32h3v-8.04h-76.34v8.04h3c6.06,0,10.91,1.74,14.85,5.32,3.85,3.5,5.73,8.23,5.73,14.45v165.46c0,23.3,5.38,42.82,15.99,58.02,10.58,15.18,24.22,26.34,40.53,33.17,16.15,6.76,33.03,10.19,50.15,10.19,30.16,0,54.97-8.39,73.74-24.94,18.87-16.63,28.71-41.37,29.27-73.6v-164.24c0-7.86,2.14-13.66,6.55-17.71,4.48-4.12,9.73-6.12,16.06-6.12h3v-8.04h-62.92v8.04Z"/>
    <path class="cls-1" d="M1580,735.1l-2.43-19.4c-1.09-12.54-2.48-23.31-4.11-32-1.67-8.93-5-17.98-9.87-26.91-4.95-9.04-12.16-16.91-21.4-23.35-7.37-5.38-16.58-9.65-27.47-12.77,16.04-4.09,29.31-11.21,39.54-21.23,13.58-12.73,20.46-29.47,20.46-49.76,0-23.37-8.33-41.55-24.75-54.01-9.81-7.56-22.32-12.95-37.21-16.01-14.64-3.01-32.56-4.53-53.25-4.53h-102.61v8.04h3c6.06,0,10.91,1.74,14.85,5.32,3.85,3.5,5.72,8.23,5.72,14.45v234.98c0,6.22-1.87,10.94-5.72,14.44-3.94,3.58-8.79,5.32-14.85,5.32h-3v8.04h76.34v-8.04h-3c-6.06,0-10.91-1.74-14.85-5.32-3.85-3.5-5.72-8.23-5.72-14.44v-112.86h68.01c15.43,1.32,27.64,4.41,36.28,9.18,8.46,4.67,15.07,12.21,19.68,22.45,3.11,6.48,5.28,13.58,6.45,21.11,1.19,7.68,2.07,17.01,2.62,27.8,1.09,15.3,2.9,27.41,5.4,35.99,2.64,9.09,8,16.23,16.01,21.28,5.67,3.28,14.41,4.88,26.71,4.88,6.52,0,11.52-.14,14.88-.42l2.76-.23v-7.45l-3.06.05c-14.39.22-22.72-7.84-25.42-24.61ZM1409.69,613.35v-110.42c0-6.3,1.38-10.56,4.11-12.66,2.04-1.57,6.56-3.44,16.46-3.44h28.46c16.76,0,31.23,1.41,43.01,4.19,11.5,2.71,20.98,7.34,28.13,13.71,10.15,9.4,15.3,23.43,15.3,41.7,0,15.57-3.66,28.97-10.81,39.7-6.17,8.48-14.39,15.13-24.44,19.77-10.14,4.68-21.77,7.19-34.55,7.45h-65.67Z"/>
    <path class="cls-1" d="M1986,757.67c-5.65,0-10.99-1.88-16.33-5.73h0c-5.35-3.85-9.45-9.1-12.19-15.58l-107.33-259.37-.77-1.86h-47.29v8.04h3c5.67,0,10.04.83,12.96,2.46,2.51,1.41,4.5,3.29,6.05,5.73l-99.44,238.9c-2.8,6.86-7.46,13.26-13.86,19.02-6.27,5.64-12.66,8.38-19.54,8.38h-3v8.04h62.92v-8.04h-3c-4.61,0-8.09-1.29-10.63-3.95-2.59-2.7-3.84-6.14-3.84-10.52,0-2.33.62-5.12,1.81-8.2l33.79-81.49h122.42l37.88,90.9c.91,2.05,1.37,3.97,1.37,5.69,0,2.63-1.04,4.3-3.38,5.42-2.97,1.42-6.7,2.14-11.1,2.14h-3v8.04h75.53v-8.04h-3ZM1774.21,641.81l56.09-135.51,56.46,135.51h-112.55Z"/>
  </g>
  <g>
    <path class="cls-2" d="M1009.29,79.37c-2.65-1.55-5.65-2.35-8.7-2.5v-.03c-.2,0-.4.01-.6.02-.2,0-.4-.02-.6-.02v.03c-3.05.15-6.05.95-8.7,2.5-6.82,3.99-10.57,10.14-10.43,17.99.14,7.78,3.89,13.78,10.79,17.8,1.26.74,2.32,2.61,2.6,4.13,3.69,19.85,1.57,39.78,1.16,59.75-.83,40.82-.61,81.67-.53,122.5.04,20.41.4,40.83,1.3,61.21.47,10.74,3.77,32.11,3.8,32.11h0c.2,0,.4,0,.6,0,.2,0,.6,0,.6,0,.03,0,.05,0,.08,0,1.29-10.7,3.24-21.37,3.72-32.11.9-20.38,1.25-40.81,1.3-61.21.09-40.84.3-81.68-.53-122.5-.41-19.97-2.52-39.9,1.16-59.75.28-1.51,1.34-3.39,2.6-4.13,6.89-4.02,10.65-10.02,10.79-17.8.14-7.84-3.61-13.99-10.43-17.99Z"/>
    <g>
      <path class="cls-2" d="M1239.25,63.59s-.01-.01-.02-.02c-.35-.46-.75-.9-1.18-1.34-.15-.15-.33-.28-.49-.43-.31-.29-.62-.57-.97-.84-.21-.16-.44-.31-.66-.46-.33-.24-.66-.47-1.02-.69-.25-.15-.52-.29-.78-.43-.36-.2-.71-.4-1.08-.57-.29-.14-.58-.25-.88-.37-.38-.16-.75-.32-1.14-.45-.31-.11-.63-.2-.96-.29-.39-.12-.79-.23-1.19-.32-.33-.08-.67-.13-1.01-.19-.41-.07-.81-.14-1.23-.18-.35-.04-.7-.05-1.05-.07-.26-.01-.52-.05-.79-.05-.3,0-.6,0-.9.02h0s0,0-.02,0c-.54.03-1.05.07-1.54.11,0,0-.01,0-.02,0,0,0,0,0,0,0-4.26.36-7.22,1.2-12.83,2.66-.59.15-1.21.31-1.86.48-.18.05-.36.09-.54.14-.78.2-1.58.4-2.46.62-1.12.28-2.17.55-3.19.82-.29.08-.58.15-.86.23-.74.2-1.46.4-2.16.6-.27.08-.55.15-.81.23-.9.26-1.78.52-2.62.78-.07.02-.13.04-.2.06-.77.24-1.52.48-2.25.73-.26.09-.52.18-.78.26-.55.19-1.09.38-1.62.56-.25.09-.5.18-.75.27-.72.26-1.43.53-2.14.8,0,0,0,0,0,0-1.66.64-3.3,1.3-5,2,0,0-.01,0-.02,0,0,0,.01,0,.02,0-6.68,2.78-21.58,9.13-39.37,15.83h0c-1.56.59-3.17,1.17-4.79,1.74,1.62-.57,3.23-1.15,4.79-1.74-3.55,1.29-7.11,2.54-10.69,3.76-.74.25-1.49.49-2.23.73-.85.27-1.69.55-2.54.82-.44.14-.87.28-1.31.42-.63.2-1.25.39-1.88.59-.44.14-.88.27-1.32.41-.63.19-1.25.38-1.87.57-.42.13-.84.25-1.25.38-2.27.68-4.52,1.34-6.71,1.97-.33.09-.66.19-.98.28-.65.19-1.3.37-1.94.55-.35.1-.69.2-1.04.29-.62.17-1.23.35-1.84.52-.36.1-.71.2-1.06.29-.6.17-1.19.33-1.78.49-.12.03-.23.06-.35.1-1.32.36-2.6.71-3.83,1.05-.27.07-.55.15-.82.22-.62.17-1.22.33-1.81.49-.18.05-.37.1-.55.15-2.07.56-3.97,1.07-5.65,1.53h0s0,0,0,0c-1.29.35-2.61.71-3.94,1.07,1.33-.36,2.65-.72,3.94-1.07-9.13,2.14-18.1,4.72-26.95,7.67-1.33.41-2.64.82-3.89,1.22-1.26.41-2.48.81-3.63,1.2-9.46,3.23-32.94,13.58-35.5,14.8-2.56,1.22-3.61,4.22-3.61,4.22h0s0,0,0,0v5.69h0v10.08c.62,1.08,4.84,1.37,4.84,1.37,0,0,1.97.28,5.53.84,10.75,1.88,21.5,3.77,32.25,5.64,6.76,1.24,13.97,2.46,20.76,3.55,3.82.64,7.63,1.29,11.45,1.91,5.18.84,10.38,1.5,15.59,1.96.17.02.33.03.48.05.07,0,.15.01.21.02.24.02.46.04.65.05,0,0,.02,0,.03,0,.71.05,1.45.11,2.24.18.08,0,.15.01.22.02.38.03.77.07,1.18.1.12,0,.23.02.35.03.45.04.91.07,1.39.11.06,0,.12,0,.18.01.42.03.86.06,1.32.09.12,0,.24.01.37.02.53.03,1.08.06,1.66.08.02,0,.05,0,.08,0,.55.02,1.12.04,1.72.05.14,0,.29,0,.44,0,.64.01,1.29.02,1.99.02h.01c.14,0,.29,0,.44,0,.36,0,.73,0,1.11,0,.21,0,.43,0,.65-.01.33,0,.66-.01,1-.02.24,0,.49-.01.74-.02.33-.01.67-.02,1.02-.04.26-.01.53-.02.8-.03.36-.02.72-.03,1.09-.05.27-.01.54-.03.82-.05.4-.02.8-.05,1.21-.08.27-.02.54-.04.82-.05.47-.03.96-.07,1.45-.11.24-.02.46-.04.7-.05.74-.06,1.5-.13,2.29-.2,0,0,.02,0,.02,0,1.18-.1,2.36-.2,3.53-.33.32-.04.64-.09.96-.14,4.42-.5,8.47-1.13,12.57-2.05.02,0,.03,0,.05-.01,5-1.13,10.11-2.71,16.1-5.06.01,0,.03-.01.04-.02.12-.05.24-.1.37-.15,2.63-1.01,5.22-2.09,7.76-3.27,1.24-.55,2.52-1.13,3.85-1.75.02,0,.03-.02.05-.02,1.18-.55,2.34-1.13,3.49-1.73.43-.23.86-.47,1.29-.71.72-.39,1.44-.79,2.15-1.2.53-.31,1.04-.62,1.56-.94.59-.36,1.18-.72,1.77-1.09.58-.37,1.15-.75,1.72-1.13.49-.33.98-.65,1.46-.98.63-.43,1.25-.87,1.86-1.31.39-.28.78-.56,1.17-.85.68-.5,1.35-1,2.01-1.51.28-.21.56-.43.83-.64.74-.57,1.47-1.15,2.18-1.73.16-.13.31-.25.46-.38.81-.66,1.6-1.31,2.37-1.97,0,0,0,0,0,0,0,0,0,0,0,0,1.88-1.6,3.65-3.18,5.3-4.72.08-.07.15-.14.23-.22.08-.07.15-.14.23-.22,2.36-2.18,4.69-4.42,6.94-6.8h-.08s0,0,0,0c0,0,0,0,0,0h0s0,0,0,0c.99-1.03,1.87-1.98,2.64-2.82.02-.02.03-.04.05-.06.36-.39.7-.77,1.01-1.11.34-.37.64-.71.91-1.02h0s0,0,0,0c0,0,0,0,0,0,0,0,0-.01.01-.02.36-.41.73-.84,1.1-1.29.03-.04.06-.07.09-.11.61-.74,1.23-1.53,1.85-2.36,0,0,0,.01-.02.02,3.64-4.68,6.83-9.63,9.48-14.9.23-.43.44-.83.63-1.22,0-.02.02-.04.03-.06.18-.37.35-.71.5-1.03,2.23-4.78,2.11-4.01,4.56-12.24.61-2.06.92-3.93,1-5.64.24-5.12-1.62-8.77-3.79-11.61ZM1184.19,72.88c6.74-2.8,12.19-4.76,21.65-7.1,2.48-.61,4.54-1.15,6.32-1.62,5.15-1.35,7.74-2.02,11.99-2.25.22-.01.43-.02.65-.02,4.5,0,8.67,2.38,10.47,4.73,2.05,2.68,3.89,6.3,1.96,12.78-.77,2.57-1.26,4.2-1.65,5.38-3.58.06-7.28.16-10.14.31-.2.03-19.18,2.26-34.64,4.2-11.57,1.44-38.7,6.72-52.59,9.5,2.84-3.24,5.56-6.98,8-10.63,14.71-5.57,27.17-10.78,34.72-13.94l3.26-1.36ZM1137.16,86.16c-1.64.57-3.29,1.14-4.95,1.69,1.67-.55,3.32-1.12,4.95-1.69ZM1068.26,106.21c-.76.23-1.51.45-2.25.68.74-.23,1.49-.45,2.25-.68ZM1086.31,101.08c-.95.26-1.91.52-2.87.79.96-.27,1.91-.53,2.87-.79ZM1081.96,102.28c-1.01.28-2.02.56-3.04.85,1.01-.28,2.02-.57,3.04-.85ZM1077.48,103.53c-1.16.33-2.31.66-3.46.98,1.15-.33,2.3-.66,3.46-.98ZM1072.28,105.02c-.74.21-1.47.43-2.2.64.73-.21,1.46-.43,2.2-.64ZM1022.87,129.92c.24-.38.54-.73.77-.84,2.41-1.15,25.67-11.41,34.95-14.58,9.17-3.13,22.41-6.81,34.16-10l3.59-.97c10.36-2.79,26.76-7.22,41.57-12.34-2.96,3.92-6.12,7.48-9.16,9.75-9.51,7.13-23.1,15.12-40.36,23.77-11.31,5.65-50.92,8.57-65.52,9.47v-4.27ZM1129.22,155.49c-11.71-6.53-24.96-12.78-36.37-15.35-10.3-2.31-18.98-3.99-25.79-5.19,5.49-.82,10.63-1.76,14.96-2.83v.07c.5-.05,49.69-4.99,76.77-8.59,26.91-3.57,46.21-4.44,46.36-4.44,1.97-.06,4.42-.09,7-.11-10.79,10.71-21.74,18.77-32.09,23.57-19.17,8.89-28.55,10.92-43.61,12.34-2.55.24-4.95.42-7.22.54ZM1049.07,137.14l-.02.13c.15.02,15.83,1.74,42.69,7.77,8.3,1.86,17.79,5.88,26.91,10.53-2.31-.1-4.22-.26-5.96-.41-.98-.08-1.88-.16-2.75-.22-4.62-.3-30.89-4.13-51.7-8.05-20.57-3.87-34.68-5.91-34.82-5.93l-.18-.03h-.18c-.06-.02-.12-.02-.18-.03v-1.69c5.78-.35,15.61-1.02,26.19-2.09ZM1030.26,147.1c-.47-.08-.91-.15-1.34-.21.43.07.87.14,1.34.21ZM1056.48,151.68c-1.15-.22-2.29-.43-3.39-.63,1.11.2,2.24.41,3.39.63ZM1051.41,150.74c-.83-.15-1.66-.3-2.46-.45.8.14,1.63.29,2.46.45ZM1047.29,149.99c-.77-.14-1.52-.27-2.25-.4.74.13,1.49.26,2.25.4ZM1043.51,149.33c-.92-.16-1.8-.31-2.67-.46.87.15,1.75.3,2.67.46ZM1039.38,148.61c-.81-.14-1.61-.27-2.37-.4.76.13,1.56.26,2.37.4ZM1035.6,147.98c-.52-.09-1.04-.17-1.53-.25.49.08,1.01.17,1.53.25ZM1032.76,147.51c-.46-.08-.91-.15-1.34-.22.44.07.88.14,1.34.22ZM1088.43,157.09c.07.01.14.02.21.03-.07-.01-.14-.02-.21-.03ZM1107.89,159.8c.08,0,.16.02.24.03-.08,0-.16-.02-.24-.03ZM1095.17,158.1c.06,0,.12.02.18.03-.06,0-.12-.02-.18-.03ZM1097.21,158.4s.09.01.14.02c-.05,0-.09-.01-.14-.02ZM1101.01,158.93c.07,0,.14.02.2.03-.07,0-.13-.02-.2-.03ZM1102.6,159.15c.11.01.22.03.33.04-.11-.01-.22-.03-.33-.04ZM1104.12,159.35c.09.01.17.02.26.03-.08-.01-.17-.02-.26-.03ZM1106.88,159.68c.07,0,.14.02.21.02-.07,0-.13-.02-.21-.02ZM1110.61,160.03c.38.03.78.06,1.19.1-.4-.03-.79-.07-1.19-.1ZM1177,149.48s.04-.02.06-.02c-.02,0-.04.02-.06.02ZM1173.46,151s.04-.02.06-.03l-.06.03ZM1214.46,123.78c.11-.1.21-.2.31-.31-.11.1-.21.2-.31.31ZM1216.88,121.39c.09-.09.18-.18.27-.27-.09.09-.18.18-.27.27ZM1220.05,110.7c-1,1.12-2.01,2.22-3.01,3.3-4.34,0-8.81.03-12.07.13-.18,0-19.68.89-46.83,4.49-17.2,2.28-43.36,5.11-60.23,6.88,13.88-7.23,25.09-14.02,33.4-20.2,5.12-1.04,45.67-9.21,60.13-11.02,15.44-1.93,34.4-4.15,34.43-4.17,2.13-.11,4.82-.2,7.58-.26-.16.34-.33.7-.52,1.11-2.09,4.5-8.15,14.43-12.88,19.73ZM1228.35,108.2c-.09.13-.18.25-.27.37.09-.12.18-.25.27-.37ZM1232.25,102.34c-.07.11-.14.22-.21.33.07-.11.14-.22.21-.33ZM1230.88,104.48s-.01.02-.02.03c0-.01.01-.02.02-.03ZM1229.6,106.39c-.06.09-.12.18-.18.27.06-.09.12-.18.18-.27ZM1235.41,97.03c.04-.07.08-.14.12-.21-.04.07-.08.14-.12.21ZM1233.29,100.66s.05-.08.07-.12c-.02.04-.05.08-.07.12ZM1234.46,98.69s0,0,0,0c0,0,0,0,0,0Z"/>
      <path class="cls-2" d="M1208.7,209.64c-29.04-19.7-56.75-27.21-68.6-30.04-11.85-2.84-61.59-13.35-82.96-17.69-21.36-4.34-39.28-9.65-39.28-9.65v18.81c3.12,7.08,9.48,18.46,17.91,29.39,8.43,10.93,19.19,21.62,38.72,35.3,19.53,13.69,40.89,21.03,45.32,22.37.76.23,1.59.49,2.52.78,1.7.53,3.72,1.15,6.26,1.82,4.11,1.08,9.58,2.3,17.26,3.49,8.46,1.32,17.2,1.94,25.9,1.94,6.31,0,12.59-.34,18.71-.98.43-.05.87-.08,1.31-.13,1.74-.19,3.36-.4,4.88-.62,11.55-1.66,17.34-4.1,25.9-8.23,3.35-1.62,6-3.47,8.05-5.43,1.31-1.26,2.38-2.55,3.19-3.85,1.59-2.54,2.26-5.1,2.11-7.41,0,0,1.84-10.18-27.21-29.88ZM1077.38,231.66c-17.11-11.99-28.36-22.24-37.63-34.26-7.88-10.22-13.79-20.67-16.87-27.41v-4.39c3.69,1.13,8.59,2.63,14.21,4.35,2.34,1.54,12.07,7.96,17.54,11.47,3.91,2.51,7.73,4.98,11.54,7.55,8.24,5.56,14.27,10.16,19.56,14.92,6.02,5.41,11,11.9,15.09,17.54,6.96,9.61,13.21,20.1,18.65,31.31-5.79-1.96-24.61-8.84-42.09-21.09ZM1171.76,261.15c-8.64,0-17.1-.63-25.13-1.88-10.22-1.59-16.41-3.21-20.67-4.49-6.02-13.06-13.09-25.25-21.09-36.29-4.24-5.85-9.43-12.6-15.8-18.33-5.47-4.92-11.67-9.65-20.11-15.35-3.85-2.6-7.7-5.08-11.63-7.61-.92-.59-1.97-1.27-3.08-1.99,10.35,3.18,21.21,6.53,30.36,9.38,3.77,1.17,7.61,2.36,11.49,3.55,3.57,1.1,7.16,2.2,10.74,3.32l-.02.04c12.66,7.2,36.29,28.16,52.97,43.3,9.28,8.42,19.24,18.48,26.28,25.77-4.74.39-9.53.58-14.3.58ZM1220.38,251.7c-8.58,4.14-14.23,6.61-27.99,8.24-7.06-7.39-18.59-19.17-29.24-28.84-12-10.9-27.57-24.76-40.28-34.54,15.2,4.96,29.71,10.18,41.74,15.96,2.44,1.17,4.89,2.33,7.35,3.5,17.81,8.44,36.17,17.17,54.7,31.61-1.57,1.4-3.63,2.79-6.29,4.08ZM1174.11,211.48c-2.45-1.16-4.89-2.32-7.33-3.49-19.34-9.28-44.69-17.08-69.21-24.63-3.87-1.19-7.71-2.37-11.47-3.54-20.99-6.54-50.95-15.7-63.22-19.45v-1.5c7.17,1.95,19.57,5.16,33.27,7.94,21.92,4.45,71.1,14.86,82.79,17.66,24.33,5.83,46.86,15.69,66.96,29.32,22.87,15.51,24.85,24.11,25.02,25.24l-.04.21.04.6c.07,1.11-.24,2.47-1.05,3.93-18.99-14.83-37.65-23.7-55.75-32.28Z"/>
    </g>
    <g>
      <path class="cls-2" d="M756.97,75.2c.08,1.71.39,3.58,1,5.64,2.45,8.23,2.34,7.46,4.56,12.24.15.32.32.67.5,1.03,0,.02.02.04.03.06.19.38.4.79.63,1.22,2.65,5.26,5.84,10.21,9.48,14.9,0,0-.01-.01-.02-.02.62.83,1.24,1.62,1.85,2.36.03.04.06.07.09.11.37.45.74.88,1.1,1.29,0,0,0,.01.01.02,0,0,0,0,0,0,0,0,0,0,0,0h0c.27.3.58.65.91,1.02.31.34.65.72,1.01,1.11.02.02.03.04.05.06.77.84,1.65,1.78,2.64,2.82,0,0,0,0,0,0h0s0,0,0,0c0,0,0,0,0,0h-.08c2.26,2.38,4.58,4.62,6.94,6.8.08.07.15.14.23.22.08.07.15.14.23.22,1.65,1.53,3.42,3.12,5.3,4.72,0,0,0,0,0,0,0,0,0,0,0,0,.77.66,1.56,1.31,2.37,1.97.16.13.31.25.46.38.71.58,1.44,1.15,2.18,1.73.28.21.55.43.83.64.66.51,1.33,1.01,2.01,1.51.39.28.78.56,1.17.85.62.44,1.23.88,1.86,1.31.48.33.97.66,1.46.98.57.38,1.14.76,1.72,1.13.58.37,1.17.73,1.77,1.09.52.31,1.03.63,1.56.94.71.41,1.43.81,2.15,1.2.43.23.85.48,1.29.71,1.15.6,2.31,1.18,3.49,1.73.02,0,.03.02.05.02,1.33.62,2.6,1.2,3.85,1.75,2.54,1.18,5.13,2.27,7.76,3.27.12.05.25.1.37.15.01,0,.03.01.04.02,5.99,2.35,11.11,3.94,16.1,5.06.02,0,.03,0,.05.01,4.1.92,8.15,1.55,12.57,2.05.32.04.64.1.96.14,1.17.13,2.35.23,3.53.33,0,0,.02,0,.02,0,.79.07,1.55.14,2.29.2.24.02.47.04.7.05.49.04.98.08,1.45.11.28.02.55.04.82.05.41.03.82.05,1.21.08.28.02.55.03.82.05.37.02.73.04,1.09.05.27.01.54.02.8.03.35.01.68.03,1.02.04.25,0,.5.02.74.02.34,0,.67.02,1,.02.22,0,.44,0,.65.01.38,0,.75,0,1.11,0,.14,0,.3,0,.44,0h.01c.7,0,1.35,0,1.99-.02.15,0,.29,0,.44,0,.59-.01,1.17-.03,1.72-.05.02,0,.05,0,.08,0,.58-.02,1.13-.05,1.66-.08.12,0,.24-.01.37-.02.45-.03.9-.06,1.32-.09.06,0,.12,0,.18-.01.48-.04.94-.07,1.39-.11.12,0,.23-.02.35-.03.4-.03.8-.07,1.18-.1.08,0,.15-.01.22-.02.79-.07,1.53-.13,2.24-.18,0,0,.02,0,.03,0,.18-.01.41-.03.65-.05.07,0,.14-.01.21-.02.15-.01.31-.03.48-.05,5.21-.46,10.41-1.12,15.59-1.96,3.82-.62,7.63-1.27,11.45-1.91,6.78-1.09,13.99-2.31,20.76-3.55,10.75-1.87,21.5-3.76,32.25-5.64,3.56-.56,5.53-.84,5.53-.84,0,0,4.22-.29,4.84-1.37,0-.79,0-2.94,0-5.06,0-2.54,0-5.02,0-5.02h0v-5.69s0,0,0,0h0s-1.05-2.99-3.61-4.22-26.04-11.57-35.5-14.8c-1.15-.39-2.37-.8-3.63-1.2-1.25-.4-2.55-.81-3.89-1.22-8.84-2.94-17.82-5.53-26.95-7.67,1.29.35,2.61.71,3.94,1.07-1.33-.36-2.65-.72-3.94-1.07h0s0,0,0,0c-1.68-.46-3.58-.97-5.65-1.53-.18-.05-.37-.1-.55-.15-.59-.16-1.19-.32-1.81-.49-.27-.07-.55-.15-.82-.22-1.23-.34-2.51-.68-3.83-1.05-.12-.03-.23-.06-.35-.1-.58-.16-1.18-.33-1.78-.49-.35-.1-.7-.2-1.06-.29-.61-.17-1.22-.34-1.84-.52-.34-.1-.69-.19-1.04-.29-.64-.18-1.29-.36-1.94-.55-.32-.09-.65-.19-.98-.28-2.19-.63-4.44-1.29-6.71-1.97-.42-.12-.83-.25-1.25-.38-.62-.19-1.25-.38-1.87-.57-.44-.13-.88-.27-1.32-.41-.63-.19-1.25-.39-1.88-.59-.44-.14-.87-.28-1.31-.42-.85-.27-1.69-.54-2.54-.82-.74-.24-1.49-.48-2.23-.73-3.58-1.22-7.14-2.47-10.69-3.76,1.56.59,3.17,1.17,4.79,1.74-1.62-.57-3.23-1.15-4.79-1.74h0c-17.79-6.7-32.69-13.05-39.37-15.83,0,0,.01,0,.02,0,0,0-.01,0-.02,0-1.7-.7-3.34-1.37-5-2,0,0,0,0,0,0-.71-.27-1.42-.53-2.14-.8-.25-.09-.5-.18-.75-.27-.53-.19-1.07-.38-1.62-.56-.26-.09-.52-.18-.78-.26-.73-.24-1.48-.49-2.25-.73-.07-.02-.13-.04-.2-.06-.84-.26-1.71-.52-2.62-.78-.27-.08-.54-.15-.81-.23-.7-.2-1.42-.4-2.16-.6-.29-.08-.57-.15-.86-.23-1.02-.27-2.07-.54-3.19-.82-.88-.22-1.68-.42-2.46-.62-.18-.05-.36-.09-.54-.14-.65-.17-1.27-.33-1.86-.48-5.61-1.46-8.57-2.3-12.83-2.66,0,0,0,0,0,0,0,0-.01,0-.02,0-.5-.04-1-.08-1.54-.11,0,0,0,0-.02,0h0c-.3-.02-.6-.02-.9-.02-.27,0-.52.04-.79.05-.35.02-.7.03-1.05.07-.41.04-.82.11-1.23.18-.34.06-.68.11-1.01.19-.4.09-.8.21-1.19.32-.32.09-.64.18-.96.29-.39.14-.77.29-1.14.45-.29.12-.59.24-.88.37-.38.18-.73.38-1.08.57-.26.14-.53.28-.78.43-.36.22-.68.46-1.02.69-.22.16-.45.3-.66.46-.35.27-.66.56-.97.84-.16.14-.34.28-.49.43-.44.43-.84.88-1.18,1.34,0,0-.01.01-.02.02-2.17,2.84-4.03,6.49-3.79,11.61ZM819.07,74.24c7.54,3.16,20,8.37,34.72,13.94,2.43,3.65,5.16,7.38,8,10.63-13.88-2.78-41.02-8.06-52.59-9.5-15.46-1.94-34.43-4.17-34.64-4.2-2.85-.16-6.55-.25-10.14-.31-.39-1.19-.88-2.81-1.65-5.38-1.93-6.48-.09-10.1,1.96-12.78,1.8-2.35,5.97-4.73,10.47-4.73.22,0,.43,0,.65.02,4.26.22,6.84.9,11.99,2.25,1.78.47,3.84,1,6.32,1.62,9.46,2.34,14.91,4.3,21.65,7.1l3.26,1.36ZM867.8,87.85c-1.67-.55-3.32-1.12-4.95-1.69,1.64.57,3.29,1.14,4.95,1.69ZM933.99,106.88c-.74-.23-1.49-.45-2.25-.68.76.23,1.51.45,2.25.68ZM916.56,101.87c-.96-.27-1.92-.53-2.87-.79.95.26,1.91.52,2.87.79ZM921.08,103.13c-1.01-.28-2.02-.57-3.04-.85,1.01.28,2.02.56,3.04.85ZM925.98,104.52c-1.15-.33-2.3-.66-3.46-.98,1.16.33,2.31.66,3.46.98ZM929.92,105.67c-.73-.21-1.46-.43-2.2-.64.74.21,1.47.43,2.2.64ZM977.13,134.19c-14.6-.9-54.2-3.83-65.52-9.47-17.27-8.64-30.85-16.63-40.36-23.77-3.04-2.28-6.2-5.84-9.16-9.75,14.81,5.12,31.21,9.55,41.57,12.34l3.59.97c11.74,3.19,24.99,6.87,34.16,10,9.28,3.17,32.54,13.43,34.95,14.58.23.11.53.46.77.84v4.27ZM863.56,154.95c-15.06-1.42-24.45-3.45-43.61-12.34-10.35-4.8-21.3-12.86-32.09-23.57,2.58.02,5.03.05,7,.11.15,0,19.44.87,46.36,4.44,27.08,3.6,76.27,8.54,76.77,8.59v-.07c4.32,1.07,9.46,2.01,14.96,2.83-6.82,1.21-15.49,2.88-25.79,5.19-11.41,2.57-24.66,8.82-36.37,15.35-2.27-.12-4.67-.3-7.22-.54ZM977.13,139.23v1.69c-.06,0-.12.01-.18.01h-.18s-.18.04-.18.04c-.14.02-14.25,2.06-34.82,5.93-20.81,3.92-47.08,7.75-51.7,8.05-.86.06-1.77.13-2.75.22-1.75.15-3.65.31-5.96.41,9.12-4.65,18.6-8.67,26.91-10.53,26.86-6.03,42.54-7.75,42.69-7.77l-.02-.13c10.58,1.07,20.42,1.74,26.19,2.09ZM971.08,146.89c-.43.07-.87.14-1.34.21.48-.08.91-.14,1.34-.21ZM946.91,151.05c-1.11.2-2.24.41-3.39.63,1.15-.22,2.28-.43,3.39-.63ZM951.05,150.29c-.8.14-1.63.29-2.46.45.83-.15,1.65-.3,2.46-.45ZM954.97,149.59c-.74.13-1.49.26-2.25.4.77-.14,1.51-.27,2.25-.4ZM959.16,148.86c-.87.15-1.75.3-2.67.46.92-.16,1.8-.31,2.67-.46ZM962.99,148.21c-.76.13-1.56.26-2.37.4.81-.14,1.61-.27,2.37-.4ZM965.93,147.72c-.49.08-1.01.17-1.53.25.52-.09,1.03-.17,1.53-.25ZM968.58,147.29c-.44.07-.88.14-1.34.22.47-.08.91-.15,1.34-.22ZM911.36,157.13c.07-.01.14-.02.21-.03-.07.01-.14.02-.21.03ZM891.87,159.82c.08,0,.16-.02.24-.03-.08,0-.16.02-.24.03ZM904.65,158.13c.06,0,.12-.02.18-.03-.06,0-.12.02-.18.03ZM902.65,158.42s.09-.01.14-.02c-.05,0-.09.01-.14.02ZM898.79,158.96c.07,0,.13-.02.2-.03-.07,0-.14.02-.2.03ZM897.08,159.19c.11-.01.22-.03.33-.04-.11.01-.22.03-.33.04ZM895.62,159.38c.08-.01.17-.02.26-.03-.09.01-.17.02-.26.03ZM892.91,159.71c.07,0,.13-.02.21-.02-.07,0-.14.02-.21.02ZM888.21,160.13c.41-.03.8-.07,1.19-.1-.4.03-.79.07-1.19.1ZM822.95,149.46s.04.02.06.02c-.02,0-.04-.02-.06-.02ZM826.47,150.97s.04.02.06.03l-.06-.03ZM785.22,123.47c.1.1.21.2.31.31-.11-.1-.21-.2-.31-.31ZM782.86,121.12c.09.09.18.18.27.27-.09-.09-.18-.18-.27-.27ZM767.07,90.97c-.19-.41-.36-.77-.52-1.11,2.77.06,5.46.15,7.58.26.03.02,18.99,2.24,34.43,4.17,14.45,1.81,55,9.98,60.13,11.02,8.31,6.18,19.51,12.96,33.4,20.2-16.87-1.78-43.03-4.61-60.23-6.88-27.15-3.6-46.64-4.49-46.83-4.49-3.27-.11-7.73-.14-12.07-.13-1.01-1.08-2.01-2.17-3.01-3.3-4.73-5.31-10.79-15.23-12.88-19.73ZM771.92,108.57c-.09-.12-.18-.25-.27-.37.09.12.18.25.27.37ZM767.96,102.67c-.07-.11-.14-.22-.21-.33.07.11.14.22.21.33ZM769.14,104.51s-.01-.02-.02-.03c0,0,.01.02.02.03ZM770.58,106.66c-.06-.09-.12-.18-.18-.27.06.09.12.18.18.27ZM764.47,96.81c.04.07.08.14.12.21-.04-.07-.08-.14-.12-.21ZM766.64,100.54s.05.08.07.12c-.02-.04-.05-.08-.07-.12ZM765.54,98.69s0,0,0,0c0,0,0,0,0,0Z"/>
      <path class="cls-2" d="M764.09,239.51c-.14,2.31.53,4.87,2.11,7.41.81,1.3,1.88,2.6,3.19,3.85,2.05,1.96,4.7,3.81,8.05,5.43,8.55,4.13,14.35,6.56,25.9,8.23,1.52.22,3.14.43,4.88.62.43.05.87.08,1.31.13,6.13.64,12.41.98,18.71.98,8.7,0,17.44-.63,25.9-1.94,7.68-1.19,13.15-2.41,17.26-3.49,2.54-.67,4.57-1.29,6.26-1.82.92-.29,1.75-.55,2.52-.78,4.42-1.34,25.79-8.68,45.32-22.37,19.53-13.69,30.29-24.37,38.72-35.3,8.43-10.93,14.79-22.32,17.91-29.39,0-2.1,0-4.55,0-6.99,0-1.81,0-3.61,0-5.23,0-3.74,0-6.59,0-6.59,0,0-17.91,5.31-39.28,9.65-21.37,4.34-71.11,14.86-82.96,17.69-11.85,2.84-39.56,10.35-68.6,30.04-29.04,19.7-27.21,29.88-27.21,29.88ZM880.54,252.74c5.44-11.21,11.69-21.71,18.65-31.31,4.09-5.64,9.07-12.13,15.09-17.54,5.29-4.76,11.33-9.36,19.56-14.92,3.8-2.57,7.63-5.03,11.54-7.55,5.47-3.51,15.2-9.93,17.54-11.47,5.62-1.72,10.52-3.22,14.21-4.35v4.39c-3.09,6.74-8.99,17.19-16.87,27.41-9.27,12.02-20.52,22.27-37.63,34.26-17.48,12.25-36.29,19.13-42.09,21.09ZM813.94,260.57c7.03-7.29,17-17.34,26.28-25.77,16.67-15.14,40.3-36.09,52.97-43.3l-.02-.04c3.58-1.11,7.17-2.22,10.74-3.32,3.88-1.2,7.72-2.38,11.49-3.55,9.15-2.85,20.01-6.2,30.36-9.38-1.11.72-2.16,1.4-3.08,1.99-3.93,2.53-7.78,5.01-11.63,7.61-8.44,5.7-14.64,10.43-20.11,15.35-6.36,5.73-11.56,12.48-15.8,18.33-8,11.04-15.07,23.22-21.09,36.29-4.26,1.27-10.45,2.9-20.67,4.49-8.03,1.25-16.49,1.88-25.13,1.88-4.77,0-9.56-.2-14.3-.58ZM773.33,247.62c18.54-14.45,36.89-23.17,54.7-31.61,2.46-1.17,4.91-2.33,7.35-3.5,12.03-5.77,26.54-11,41.74-15.96-12.71,9.78-28.28,23.65-40.28,34.54-10.65,9.67-22.18,21.46-29.24,28.84-13.75-1.63-19.41-4.1-27.99-8.24-2.66-1.28-4.71-2.68-6.29-4.08ZM770.14,243.76c-.81-1.47-1.12-2.83-1.05-3.93l.04-.6-.04-.21c.16-1.13,2.15-9.73,25.02-25.24,20.1-13.63,42.62-23.49,66.96-29.32,11.69-2.8,60.87-13.2,82.79-17.66,13.7-2.78,26.1-5.99,33.27-7.94v1.5c-12.27,3.75-42.23,12.91-63.22,19.45-3.76,1.17-7.6,2.35-11.47,3.54-24.52,7.55-49.87,15.35-69.21,24.63-2.44,1.17-4.88,2.33-7.33,3.49-18.1,8.58-36.76,17.45-55.75,32.28Z"/>
    </g>
  </g>
</svg>