<?xml version="1.0" encoding="UTF-8"?>
<svg id="Layer_1" data-name="Layer 1" xmlns="http://www.w3.org/2000/svg" version="1.1" viewBox="0 0 2000 352">
  <defs>
    <style>
      .cls-1 {
        fill: #000;
        stroke-width: 0px;
      }
    </style>
  </defs>
  <path class="cls-1" d="M179.13,173.3c-12.46-5.96-29.31-12.53-50.11-19.56-17.85-5.86-32.1-11.26-42.34-16.05-9.99-4.67-18.51-10.83-25.35-18.32-6.61-7.23-10.09-16.51-10.34-27.56-.26-16.71,5.2-29.36,16.69-38.69,11.53-9.35,27.37-14.1,47.06-14.1,16.72,0,33.02,3.78,48.45,11.23,15.31,7.4,27.69,18.53,36.79,33.07l.88,1.4h7.77l-12.19-57.35h-7.03l-.37,2.56c-.05.35-1,.72-2.3.9-2.82.39-6.5.58-10.92.58-1.43,0-5.9-.28-19.15-1.61-2.98-.26-8.85-.74-17.63-1.42-8.87-.68-17.45-1.02-25.51-1.02-15.13,0-29.31,2.52-42.13,7.48-12.98,5.03-23.62,12.69-31.6,22.78-8.08,10.2-12.17,22.67-12.17,37.04,0,18.13,4.5,33.1,13.37,44.51,8.75,11.25,19.59,19.98,32.23,25.94,12.3,5.82,28.82,12.06,49.11,18.55,18.42,5.88,33.15,11.28,43.77,16.06,10.31,4.64,19.14,11.31,26.23,19.82,6.92,8.31,10.43,19.1,10.43,32.06,0,17.89-6.54,32.79-19.43,44.28-12.99,11.57-32.8,17.44-58.89,17.44-20.03,0-39.47-3.61-57.77-10.72-18.05-7.01-32.19-18.45-42.04-34l-.88-1.39h-7.76l12.19,57.35h7.04l.36-2.57c.05-.34,1.01-.71,2.3-.89,4.84-.66,12.37-.81,21.44-.18,3.91.27,8.03.54,12.31.81,24.02,1.88,41.65,2.84,52.41,2.84,32.93,0,58.35-7.38,75.55-21.94,17.34-14.69,26.14-35.12,26.14-60.73,0-17.34-4.65-31.79-13.83-42.95-9-10.94-20.03-19.57-32.77-25.67Z"/>
  <path class="cls-1" d="M579.42,306.85h0c-5.32-3.83-9.4-9.06-12.13-15.5L460.51,33.29l-.76-1.85h-47.05v8h2.99c5.65,0,9.99.83,12.9,2.45,2.5,1.4,4.48,3.27,6.02,5.71l-98.94,237.69c-2.78,6.83-7.42,13.19-13.79,18.93-6.15,5.53-12.69,8.34-19.44,8.34h-2.99v8h62.61v-8h-2.99c-4.59,0-8.05-1.29-10.58-3.93-2.57-2.68-3.82-6.11-3.82-10.47,0-2.32.61-5.09,1.79-8.16l33.62-81.07h121.8l37.68,90.44c.9,2.04,1.36,3.95,1.36,5.67,0,2.61-1.04,4.28-3.36,5.39-2.96,1.41-6.67,2.13-11.05,2.13h-2.99v8h75.15v-8h-2.99c-5.54,0-11.01-1.92-16.25-5.7ZM384.96,197.28l55.8-134.83,56.18,134.83h-111.98Z"/>
  <path class="cls-1" d="M853.97,39.44h2.99c3.25,0,5.66.84,7.39,2.56,1.73,1.73,2.57,4.02,2.57,6.99,0,4.16-1.56,8.31-4.67,12.38l-75.53,102.53-70.42-106.42c-2.1-3.27-3.17-6.4-3.17-9.3,0-2.67.82-4.73,2.5-6.32,1.73-1.63,4.17-2.42,7.46-2.42h2.99v-8h-80.81v8h2.99c6.17,0,12.33,1.77,18.31,5.26,6.03,3.52,11.41,8.91,16.01,16.06l82.42,124.23v107.9c0,6.19-1.86,10.89-5.7,14.37-3.91,3.56-8.75,5.29-14.78,5.29h-2.99v8h75.95v-8h-2.99c-6.03,0-10.86-1.73-14.78-5.29-3.83-3.48-5.69-8.18-5.69-14.37v-119.15l77.09-104.8c14.17-19.58,28.59-29.5,42.88-29.5h2.99v-8h-63.01v8Z"/>
  <path class="cls-1" d="M1194.95,39.44h2.99c6.28,0,11.51,1.99,15.97,6.09,4.38,4.04,6.52,9.8,6.52,17.62v163.33c-.78,28.41-9.02,50.02-24.51,64.21-15.53,14.24-36.49,21.46-62.3,21.46-14.07,0-27.41-2.77-39.63-8.24-12.06-5.38-22.09-14.45-29.82-26.95-7.76-12.54-11.69-28.95-11.69-48.79V59.11c0-6.19,1.86-10.89,5.7-14.37,3.92-3.56,8.75-5.29,14.78-5.29h2.99v-8h-75.95v8h2.99c6.03,0,10.86,1.73,14.77,5.29,3.83,3.49,5.7,8.19,5.7,14.37v164.62c0,23.18,5.35,42.6,15.91,57.73,10.52,15.1,24.09,26.21,40.33,33,16.07,6.73,32.86,10.14,49.89,10.14,30.01,0,54.69-8.35,73.37-24.81,18.77-16.54,28.57-41.16,29.12-73.23V63.15c0-7.82,2.13-13.59,6.52-17.62,4.46-4.1,9.68-6.09,15.98-6.09h2.99v-8h-62.6v8Z"/>
  <path class="cls-1" d="M1577.07,290.1l-2.42-19.3c-1.09-12.48-2.46-23.19-4.08-31.84-1.67-8.88-4.97-17.89-9.82-26.77-4.92-9-12.1-16.82-21.29-23.23-7.33-5.35-16.49-9.6-27.33-12.71,15.96-4.07,29.16-11.16,39.35-21.12,13.51-12.67,20.36-29.32,20.36-49.5,0-23.25-8.29-41.34-24.62-53.74-9.76-7.52-22.21-12.88-37.02-15.93-14.57-2.99-32.39-4.51-52.98-4.51h-102.09v8h2.99c6.03,0,10.86,1.73,14.78,5.29,3.83,3.48,5.69,8.19,5.69,14.37v233.79c0,6.19-1.86,10.89-5.69,14.37-3.92,3.56-8.75,5.29-14.78,5.29h-2.99v8h75.95v-8h-2.99c-6.03,0-10.86-1.73-14.78-5.29-3.83-3.48-5.69-8.18-5.69-14.37v-112.29h67.67c15.35,1.32,27.5,4.39,36.1,9.13,8.41,4.65,14.99,12.14,19.58,22.34,3.09,6.45,5.25,13.51,6.41,21.01,1.19,7.64,2.06,16.93,2.6,27.66,1.08,15.22,2.89,27.27,5.37,35.81,2.63,9.05,7.96,16.15,15.93,21.17,5.64,3.27,14.33,4.85,26.58,4.85,6.48,0,11.47-.14,14.81-.41l2.74-.23v-7.41l-3.04.05c-14.32.22-22.6-7.8-25.3-24.48ZM1407.62,168.97V59.11c0-6.27,1.38-10.51,4.09-12.6,2.03-1.56,6.53-3.43,16.38-3.43h28.31c16.67,0,31.07,1.4,42.79,4.17,11.45,2.7,20.87,7.3,27.98,13.64,10.1,9.35,15.22,23.31,15.22,41.49,0,15.5-3.64,28.82-10.75,39.5-6.14,8.44-14.32,15.06-24.32,19.67-10.09,4.66-21.66,7.15-34.37,7.41h-65.34Z"/>
  <path class="cls-1" d="M1981.01,312.56c-5.62,0-10.93-1.87-16.25-5.7h0c-5.32-3.83-9.41-9.06-12.13-15.5l-106.78-258.06-.76-1.85h-47.05v8h2.99c5.65,0,9.99.83,12.9,2.45,2.49,1.4,4.47,3.27,6.02,5.71l-98.94,237.69c-2.79,6.83-7.43,13.19-13.79,18.93-6.24,5.61-12.59,8.34-19.44,8.34h-2.99v8h62.61v-8h-2.99c-4.59,0-8.05-1.29-10.58-3.93-2.57-2.68-3.82-6.11-3.82-10.47,0-2.32.61-5.09,1.8-8.16l33.62-81.07h121.8l37.68,90.44c.9,2.04,1.36,3.95,1.36,5.67,0,2.61-1.04,4.28-3.36,5.39-2.95,1.41-6.67,2.13-11.04,2.13h-2.99v8h75.14v-8h-2.99ZM1770.3,197.28l55.81-134.83,56.18,134.83h-111.98Z"/>
</svg>